<svg width="49" height="49" viewBox="0 0 49 49" fill="none" xmlns="http://www.w3.org/2000/svg">
<path d="M4.38958 8.81591C4.0806 8.81629 3.77163 8.81833 3.46267 8.82204C3.15642 8.83225 2.84404 8.84858 2.53983 8.90371C2.08009 8.97636 1.64417 9.15713 1.26792 9.43115C0.891684 9.70516 0.585878 10.0646 0.375667 10.4799C0.23275 10.7616 0.142917 11.0475 0.0898333 11.3578C0.0326667 11.66 0.0142917 11.9703 0.00816667 12.2765C0.00398699 12.4187 0.00126462 12.561 0 12.7032L0 36.2988C0 36.4417 0.00408333 36.5805 0.006125 36.7214C0.0142917 37.0277 0.0326667 37.34 0.0877917 37.6442C0.142917 37.9505 0.234792 38.2384 0.377708 38.5201C0.659243 39.0744 1.10968 39.5248 1.66396 39.8064C1.94571 39.9493 2.23154 40.0412 2.54188 40.0963C2.84404 40.1514 3.15438 40.1698 3.46063 40.178L3.88529 40.1841H45.1147L45.5373 40.178C45.8436 40.1698 46.156 40.1514 46.4602 40.0963C46.7664 40.0412 47.0543 39.9513 47.334 39.8084C47.8897 39.5272 48.341 39.0758 48.6223 38.5201C48.7652 38.2384 48.8571 37.9525 48.9102 37.6422C48.9653 37.34 48.9837 37.0297 48.9918 36.7234C48.9959 36.5805 48.998 36.4417 48.998 36.2988L49 35.7965V12.7012C49 12.5583 48.9959 12.4195 48.9918 12.2786C48.988 11.9693 48.9607 11.6609 48.9102 11.3557C48.8125 10.7409 48.5229 10.1727 48.0829 9.73231C47.6429 9.29192 47.0749 9.0019 46.4602 8.90371C46.155 8.8534 45.8466 8.8261 45.5373 8.82204C45.2291 8.81331 44.9208 8.81127 44.6125 8.81591H4.38958ZM4.38958 9.86125H45.1045C45.2393 9.86125 45.372 9.86533 45.5067 9.86737C45.7415 9.87554 46.0171 9.88779 46.2723 9.93271C46.4949 9.97354 46.6807 10.0348 46.8583 10.1246C47.2164 10.3064 47.5075 10.5974 47.6893 10.9556C47.7828 11.1407 47.8475 11.3389 47.8812 11.5436C47.9261 11.7947 47.9383 12.0703 47.9445 12.3072C47.9485 12.4399 47.9506 12.5726 47.9506 12.7094V36.2947C47.9506 36.4274 47.9506 36.5601 47.9445 36.6949C47.9383 36.9297 47.9261 37.2053 47.8791 37.4605C47.835 37.7609 47.7191 38.0463 47.5415 38.2926C47.3638 38.5388 47.1295 38.7387 46.8583 38.8754C46.6744 38.9684 46.4776 39.0331 46.2744 39.0673C46.0224 39.1073 45.7679 39.1292 45.5128 39.1326L45.1045 39.1387H3.89142C3.75667 39.1387 3.61988 39.1347 3.49125 39.1326C3.2348 39.1293 2.97893 39.1075 2.72563 39.0673C2.50308 39.0265 2.31729 38.9652 2.13763 38.8754C1.77948 38.6943 1.48892 38.403 1.30871 38.0444C1.21542 37.8592 1.15072 37.661 1.11679 37.4564C1.07624 37.2045 1.05441 36.95 1.05146 36.6949C1.04872 36.5608 1.04736 36.4267 1.04738 36.2927V12.7073C1.04738 12.5746 1.04737 12.4399 1.05146 12.3051C1.05963 12.0724 1.07187 11.7988 1.11679 11.5395C1.15763 11.319 1.21888 11.1332 1.30871 10.9535C1.49062 10.596 1.78167 10.3057 2.13967 10.1246C2.3245 10.0322 2.52194 9.96754 2.72563 9.93271C2.98083 9.88779 3.25646 9.8735 3.49125 9.86737C3.62396 9.86329 3.75871 9.86329 3.89142 9.86125H4.38958ZM14.0058 17.4154C13.3933 17.4481 12.642 17.8217 12.2092 18.3464C11.8192 18.7956 11.4742 19.5306 11.564 20.2207C12.2541 20.2819 12.9421 19.8756 13.377 19.3672C13.7955 18.8405 14.0814 18.1361 14.0058 17.4175V17.4154ZM18.5118 18.2729V29.4878H20.2513V25.6556H22.6605C24.8614 25.6556 26.4069 24.1468 26.4069 21.9561C26.4069 19.7715 24.892 18.2709 22.7156 18.2709L18.5118 18.2729ZM20.2513 19.7409H22.2562C23.765 19.7409 24.6266 20.5494 24.6266 21.9642C24.6266 23.3771 23.765 24.1937 22.2501 24.1937H20.2513V19.7409ZM13.8119 20.3534C12.8931 20.3738 12.1173 20.925 11.6681 20.925C11.1883 20.925 10.4574 20.386 9.66525 20.4003C9.14995 20.4132 8.647 20.5607 8.20643 20.8283C7.76585 21.0959 7.40301 21.4741 7.154 21.9255C6.07804 23.7793 6.87021 26.5294 7.91758 28.0402C8.42596 28.7875 9.03846 29.6103 9.84492 29.5797C10.6065 29.5511 10.9066 29.0856 11.8315 29.0856C12.7584 29.0856 13.0279 29.5797 13.8323 29.5654C14.6694 29.5511 15.1941 28.8181 15.7004 28.0688C16.2843 27.2175 16.5232 26.3947 16.5375 26.3518C16.5232 26.3355 14.9246 25.723 14.9103 23.8834C14.894 22.344 16.1659 21.611 16.2251 21.5661C15.5065 20.5045 14.3876 20.386 13.9997 20.3554C13.9372 20.3515 13.8745 20.3501 13.8119 20.3513V20.3534ZM30.5617 21.1639C28.5405 21.1639 27.2828 22.2521 27.1889 23.7282H28.7753C28.9223 22.9973 29.5286 22.5318 30.5005 22.5318C31.5254 22.5318 32.1399 23.0749 32.1399 23.9835V24.6143L29.9002 24.745C27.9586 24.8552 26.8622 25.7332 26.8622 27.1623C26.8622 28.6323 27.981 29.6266 29.5817 29.6266C30.6556 29.6266 31.6887 29.0529 32.1624 28.1423H32.2012V29.4878H33.81V23.8528C33.81 22.2133 32.5442 21.1639 30.5617 21.1639ZM34.5225 21.3109L37.4748 29.496C37.4748 29.5021 37.3258 29.986 37.3258 30.0002C37.0705 30.8373 36.652 31.166 35.8741 31.166C35.7332 31.166 35.4535 31.166 35.329 31.1354V32.4952C35.4515 32.5176 35.8741 32.534 36.013 32.534C37.7075 32.534 38.516 31.897 39.2143 29.9145L42.2768 21.3109H40.5046L38.4385 27.9647H38.4078L36.3396 21.3089L34.5225 21.3109ZM32.1399 25.7801V26.4253C32.1399 27.489 31.2212 28.2975 30.0493 28.2975C29.1468 28.2975 28.5568 27.832 28.5568 27.1154C28.5568 26.4171 29.1244 25.972 30.1268 25.9047L32.1399 25.7801Z" fill="black"/>
</svg>
